<?xml version="1.0" standalone="no"?>
<!DOCTYPE svg PUBLIC "-//W3C//DTD SVG 20010904//EN"
 "http://www.w3.org/TR/2001/REC-SVG-20010904/DTD/svg10.dtd">
<svg version="1.0" xmlns="http://www.w3.org/2000/svg"
 width="656.000000pt" height="656.000000pt" viewBox="0 0 656.000000 656.000000"
 preserveAspectRatio="xMidYMid meet">
<metadata>
Created by potrace 1.11, written by Peter Selinger 2001-2013
</metadata>
<g transform="translate(0.000000,656.000000) scale(0.100000,-0.100000)"
fill="#000000" stroke="none">
<path d="M2975 6500 c-2 -3 -34 -7 -72 -8 -38 -2 -71 -9 -75 -15 -5 -8 -8 -7
-8 3 0 9 -3 11 -8 5 -4 -6 -20 -10 -37 -10 -16 0 -34 -2 -40 -4 -9 -4 -55 -12
-82 -14 -7 0 -13 -3 -13 -6 0 -4 -18 -6 -39 -6 -22 0 -37 -3 -35 -7 5 -7 -36
-13 -60 -9 -4 1 -14 -3 -22 -10 -8 -6 -21 -9 -29 -5 -8 3 -15 2 -15 -2 0 -7
-16 -11 -57 -14 -7 -1 -13 -5 -13 -10 0 -4 -3 -7 -7 -6 -12 2 -66 -12 -85 -23
-10 -5 -25 -9 -33 -9 -8 0 -23 -4 -33 -10 -9 -5 -46 -19 -82 -31 -36 -11 -70
-25 -76 -30 -6 -5 -19 -10 -30 -12 -10 -2 -40 -13 -66 -25 -26 -12 -52 -22
-57 -22 -6 0 -11 -4 -11 -10 0 -5 -3 -10 -7 -9 -15 2 -53 -13 -53 -21 0 -7
-35 -20 -54 -19 -5 1 -12 -3 -15 -8 -3 -5 -26 -20 -51 -34 -25 -13 -51 -30
-58 -36 -7 -7 -21 -13 -30 -13 -10 0 -25 -9 -35 -20 -9 -11 -24 -20 -32 -20
-8 0 -15 -3 -15 -8 0 -4 -20 -18 -45 -32 -25 -14 -45 -28 -45 -32 0 -5 -6 -8
-13 -8 -7 0 -20 -9 -30 -20 -9 -11 -23 -20 -30 -20 -7 0 -19 -9 -27 -20 -8
-11 -20 -20 -28 -20 -7 0 -15 -7 -18 -15 -4 -8 -12 -15 -19 -15 -7 0 -15 -4
-17 -8 -1 -5 -24 -25 -50 -44 -26 -20 -44 -39 -41 -42 4 -3 1 -6 -6 -6 -6 0
-30 -17 -53 -37 -22 -21 -45 -37 -50 -35 -5 1 -7 -2 -4 -7 3 -5 -10 -21 -29
-37 -19 -15 -35 -34 -35 -41 0 -8 -4 -12 -9 -8 -6 3 -15 -4 -21 -15 -6 -11
-15 -18 -21 -15 -5 4 -8 3 -7 -2 2 -5 -16 -28 -39 -51 -23 -23 -40 -42 -38
-42 3 0 -8 -13 -23 -28 -70 -74 -102 -115 -96 -124 4 -6 2 -8 -4 -4 -6 3 -13
-3 -17 -14 -4 -11 -10 -18 -15 -15 -5 3 -12 -5 -16 -17 -4 -13 -16 -31 -27
-40 -11 -10 -16 -18 -12 -18 4 0 -4 -11 -19 -25 -14 -13 -26 -28 -26 -32 0 -5
-5 -15 -12 -24 -18 -22 -35 -48 -58 -91 -11 -21 -25 -38 -30 -38 -6 0 -9 -3
-8 -7 3 -12 -35 -83 -44 -83 -4 0 -8 -9 -8 -20 0 -11 -4 -20 -10 -20 -5 0 -10
-5 -10 -10 0 -6 -11 -28 -24 -49 -14 -21 -22 -41 -19 -44 3 -3 -4 -16 -16 -28
-11 -12 -18 -26 -15 -30 2 -4 0 -10 -6 -14 -6 -4 -8 -11 -5 -16 4 -5 1 -9 -4
-9 -6 0 -11 -9 -11 -20 0 -11 -3 -20 -8 -20 -8 0 -33 -65 -35 -92 -1 -10 -5
-18 -9 -18 -4 0 -8 -7 -8 -15 0 -8 -4 -15 -10 -15 -5 0 -9 -3 -8 -7 5 -22 -15
-82 -26 -76 -6 3 -8 3 -4 -2 4 -4 1 -23 -7 -41 -8 -19 -12 -34 -10 -34 2 0 -3
-16 -11 -35 -7 -19 -14 -47 -14 -62 0 -23 -2 -25 -11 -13 -10 13 -10 13 -6 -1
5 -16 -16 -112 -24 -105 -2 2 -4 -5 -5 -17 -1 -21 -7 -57 -20 -107 -3 -14 -6
-37 -6 -52 0 -15 -3 -26 -7 -24 -3 2 -7 -12 -9 -32 -3 -49 -6 -65 -15 -79 -4
-6 -3 -15 3 -18 8 -5 8 -11 1 -19 -10 -12 -25 -161 -23 -219 1 -19 -2 -25 -11
-20 -7 4 -7 0 2 -10 11 -14 11 -17 0 -17 -10 0 -11 -2 -2 -8 7 -4 9 -13 4 -20
-7 -12 -5 -96 4 -120 3 -7 1 -11 -4 -8 -9 6 -6 -112 4 -152 4 -17 2 -22 -6
-16 -8 5 -9 3 -4 -6 5 -7 9 -29 10 -49 9 -146 18 -216 29 -242 4 -9 6 -20 5
-25 -5 -26 2 -87 9 -77 4 7 7 -9 7 -35 0 -26 3 -49 6 -52 4 -3 10 -23 14 -45
10 -58 10 -59 18 -72 4 -6 1 -14 -5 -16 -10 -4 -10 -6 0 -6 6 -1 12 -11 12
-24 0 -13 3 -27 8 -31 4 -4 7 -11 7 -14 1 -4 7 -32 15 -62 8 -30 13 -59 12
-63 -1 -5 2 -6 7 -3 7 5 17 -26 23 -71 1 -7 5 -13 8 -13 7 0 24 -58 21 -72 0
-5 4 -8 9 -8 6 0 10 -7 10 -16 0 -8 10 -36 22 -62 11 -26 21 -53 21 -59 0 -7
3 -13 7 -13 4 0 12 -18 19 -41 7 -22 19 -43 27 -46 7 -3 12 -9 9 -13 -7 -12
30 -82 39 -73 4 4 7 3 5 -2 -4 -16 12 -65 22 -65 5 0 9 -10 9 -22 0 -12 3 -18
6 -15 4 3 20 -19 36 -51 16 -31 34 -58 39 -60 5 -2 9 -8 9 -14 0 -11 77 -129
107 -165 10 -11 25 -31 33 -43 29 -42 120 -155 177 -218 18 -20 33 -39 33 -43
0 -4 9 -11 21 -14 11 -4 18 -9 15 -12 -2 -3 7 -16 22 -30 15 -14 26 -30 24
-35 -1 -5 1 -7 6 -4 5 3 19 -6 30 -19 12 -14 27 -25 33 -25 5 0 7 -4 4 -10 -3
-5 -2 -10 2 -10 5 0 32 -22 61 -50 29 -27 55 -50 57 -50 3 0 13 -8 23 -17 10
-10 35 -31 56 -48 21 -16 45 -36 52 -42 7 -7 15 -13 18 -13 6 0 36 -24 61 -47
8 -7 18 -13 24 -13 6 0 11 -4 11 -9 0 -5 13 -14 30 -21 16 -7 30 -16 30 -21 0
-5 5 -9 10 -9 6 0 20 -9 32 -20 12 -10 25 -17 29 -14 4 2 20 -8 35 -23 14 -16
23 -21 20 -13 -7 13 -6 13 6 0 7 -8 34 -25 59 -38 26 -12 52 -29 59 -37 6 -7
17 -12 24 -9 8 3 16 -2 19 -10 4 -9 15 -16 25 -16 11 0 25 -7 32 -15 7 -8 21
-15 31 -15 11 0 19 -5 19 -11 0 -6 7 -9 15 -5 8 3 15 1 15 -4 0 -6 9 -10 19
-10 11 0 21 -4 23 -10 2 -5 13 -11 26 -13 12 -2 27 -8 33 -14 6 -6 18 -9 27
-6 8 4 13 2 10 -3 -3 -5 30 -20 73 -34 43 -13 79 -28 79 -32 0 -5 14 -8 30 -8
17 0 30 -4 30 -8 0 -5 6 -9 13 -10 6 0 19 -3 27 -5 8 -2 29 -7 45 -11 17 -4
39 -12 50 -17 19 -8 67 -20 93 -21 6 -1 12 -6 12 -12 0 -6 5 -4 10 4 5 8 10
10 10 4 0 -6 6 -11 13 -11 6 0 28 -4 47 -8 19 -4 45 -8 58 -8 12 -1 22 -4 22
-8 0 -4 8 -8 18 -8 9 0 32 -1 50 -1 17 -1 32 -5 32 -9 0 -4 15 -6 33 -6 17 1
38 -3 45 -8 8 -6 12 -5 12 4 0 9 3 10 8 3 4 -6 19 -11 35 -11 15 -1 28 -2 30
-3 1 0 27 -2 58 -4 31 -2 61 -6 67 -10 7 -4 12 -3 12 3 0 6 9 8 23 3 12 -4 44
-7 70 -6 26 0 50 -3 53 -8 3 -4 14 -3 25 3 14 7 24 7 33 0 7 -6 16 -7 20 -3 4
4 38 8 74 9 37 1 108 4 157 8 50 4 98 7 108 7 11 -1 15 4 10 11 -4 7 0 6 10
-2 9 -7 17 -9 17 -4 0 6 16 9 36 8 19 -1 37 1 39 5 2 3 21 7 41 8 21 2 42 8
46 15 6 9 8 9 8 -1 0 -10 5 -10 21 -2 11 7 23 9 26 7 3 -3 21 0 41 7 21 7 43
11 50 9 6 -3 12 -1 12 4 0 4 10 9 23 9 36 3 80 14 94 26 7 6 13 8 13 5 0 -3
21 1 48 9 26 9 54 17 62 18 20 4 51 15 72 27 10 5 25 6 34 2 12 -4 15 -3 10 5
-4 8 0 12 12 12 10 0 22 3 26 7 4 5 11 8 14 9 11 1 46 15 65 25 11 6 21 8 24
5 3 -3 12 2 20 10 8 8 19 12 24 9 5 -4 9 -1 9 5 0 6 5 8 10 5 6 -3 10 -2 10 4
0 5 14 12 30 16 17 4 30 10 30 14 0 4 7 8 15 9 8 1 22 3 30 4 8 1 15 5 15 9 0
4 21 17 48 30 26 12 50 27 54 33 4 6 8 7 8 3 0 -4 20 6 45 23 25 17 45 28 45
25 0 -4 12 3 26 14 15 12 33 21 41 21 8 0 12 4 9 9 -3 5 5 12 19 15 14 4 25
11 25 16 0 6 5 10 10 10 6 0 33 16 60 35 27 19 55 35 60 35 6 0 9 4 5 9 -3 5
4 12 15 16 11 3 20 11 20 16 0 5 6 9 14 9 7 0 21 11 32 24 10 14 21 23 25 20
4 -2 15 6 23 18 9 12 16 19 16 15 0 -5 12 3 28 18 75 70 104 95 113 95 6 0 7
4 4 10 -3 5 -1 10 4 10 6 0 53 43 103 96 141 147 166 174 161 174 -2 0 6 11
19 24 39 42 83 98 90 117 4 11 11 19 15 19 5 0 19 18 33 40 14 22 28 40 32 40
5 0 8 7 8 15 0 8 4 15 8 15 10 0 37 50 34 63 -1 4 2 7 7 7 8 0 48 60 52 78 1
4 10 18 20 31 10 13 16 27 13 32 -3 5 2 9 11 9 9 0 14 4 10 9 -3 5 2 16 10 25
9 8 16 19 15 23 0 4 6 15 13 23 7 8 13 17 14 20 1 3 7 19 14 35 7 17 12 33 11
38 -1 4 3 7 8 7 6 0 10 9 10 21 0 11 5 17 10 14 6 -3 10 2 10 12 0 10 11 40
24 68 14 27 22 53 20 57 -3 5 0 8 6 8 6 0 8 5 5 10 -3 6 -1 10 4 10 6 0 11 8
11 18 0 10 3 21 6 25 9 8 62 167 57 167 -3 0 0 7 7 15 7 8 9 15 6 15 -4 0 -2
9 4 21 6 11 13 28 15 37 12 58 32 122 36 117 3 -3 5 5 4 18 -2 21 10 76 22
107 3 8 5 19 4 23 -1 5 3 24 8 43 7 25 6 34 -2 34 -9 0 -9 2 -1 8 7 4 13 23
15 42 2 19 7 41 12 48 6 8 5 12 -3 12 -10 0 -10 3 0 14 6 8 11 23 10 33 -1 10
-1 20 0 23 3 8 8 70 11 122 1 26 4 46 8 44 3 -2 6 6 6 19 0 13 -3 21 -7 18 -5
-2 -8 0 -8 6 0 5 3 12 8 14 9 6 8 139 -1 154 -4 7 -3 14 2 17 10 6 7 88 -3
105 -4 6 -2 11 5 11 10 0 10 3 1 12 -8 8 -8 17 -1 31 6 11 7 17 2 14 -6 -4
-10 10 -10 31 0 20 -4 66 -8 102 -3 36 -7 76 -8 90 -2 14 -6 31 -11 39 -7 11
-6 12 5 6 11 -7 12 -6 2 6 -7 8 -14 40 -17 70 -3 30 -6 54 -7 54 -1 0 -2 12
-3 27 -1 15 -5 30 -9 34 -4 4 -7 20 -7 36 0 15 -4 28 -9 28 -5 0 -7 9 -4 20 3
13 0 20 -8 20 -11 0 -11 2 1 10 10 6 11 10 3 10 -7 0 -13 12 -13 26 0 14 -4
33 -10 43 -5 10 -12 33 -15 52 -3 19 -12 46 -20 62 -9 19 -10 25 -2 21 8 -5 8
-3 0 7 -7 7 -13 21 -13 31 0 10 -4 18 -10 18 -5 0 -9 3 -9 8 3 17 -14 72 -23
72 -5 0 -7 4 -3 10 3 5 1 17 -4 27 -17 33 -39 88 -46 115 -4 16 -10 26 -14 24
-4 -3 -8 5 -8 16 -1 12 -8 25 -15 29 -7 5 -9 9 -4 9 5 0 3 7 -4 15 -7 8 -9 15
-4 15 5 0 4 4 -1 8 -6 4 -19 26 -29 50 -11 23 -23 42 -29 42 -5 0 -7 7 -3 15
3 8 2 15 -3 15 -5 0 -11 8 -14 18 -8 23 -40 75 -52 84 -7 5 -7 8 0 8 6 0 3 6
-6 13 -13 11 -28 38 -29 52 0 3 -4 11 -10 18 -40 47 -50 62 -50 72 0 7 -7 15
-15 19 -8 3 -15 11 -15 18 -1 7 -14 29 -30 48 -17 19 -30 38 -30 42 0 3 -13
22 -30 40 -16 18 -30 38 -30 45 0 7 -7 13 -15 13 -8 0 -15 5 -15 10 0 13 -12
28 -68 86 -24 24 -41 44 -38 44 3 0 -39 45 -94 100 -54 55 -103 100 -110 100
-6 0 -9 3 -7 8 2 4 -4 15 -15 25 -10 9 -18 15 -18 12 0 -3 -13 7 -28 22 -26
26 -81 72 -160 135 -19 15 -39 25 -45 21 -6 -3 -7 -1 -3 5 4 7 1 12 -9 12 -9
0 -13 5 -10 10 3 6 0 10 -8 10 -8 0 -22 9 -32 20 -10 11 -22 20 -27 20 -5 0
-16 6 -23 13 -33 29 -45 37 -45 32 0 -3 -21 9 -48 27 -26 18 -50 32 -54 30 -5
-1 -8 2 -8 6 0 5 -18 17 -40 27 -22 10 -40 22 -40 27 0 5 -4 6 -10 3 -5 -3
-10 -3 -10 2 0 4 -21 17 -48 27 -26 11 -53 26 -60 33 -7 7 -22 13 -33 13 -10
0 -19 4 -19 9 0 5 -13 12 -30 16 -16 4 -30 11 -30 16 0 5 -3 8 -7 7 -5 -1 -30
8 -57 20 -26 12 -52 19 -57 16 -5 -3 -9 0 -9 5 0 6 -3 10 -7 9 -5 0 -24 6 -43
14 -19 9 -44 18 -55 20 -11 1 -22 6 -25 10 -3 4 -21 10 -40 13 -19 3 -38 11
-42 18 -4 7 -8 9 -8 5 0 -4 -18 -1 -40 7 -22 8 -42 14 -45 15 -3 0 -6 0 -7 1
-2 0 -11 2 -20 5 -10 2 -26 6 -35 8 -10 3 -20 5 -23 6 -3 1 -13 2 -22 1 -10
-1 -18 2 -18 8 0 5 -8 10 -17 10 -18 -1 -74 8 -83 12 -3 1 -9 3 -15 4 -5 2
-12 4 -15 5 -18 6 -120 21 -147 21 -13 -1 -23 5 -23 12 0 8 -4 7 -10 -3 -8
-12 -10 -12 -10 -1 0 11 -3 11 -17 0 -9 -8 -14 -9 -10 -3 4 7 -7 12 -31 13
-20 1 -51 3 -69 4 -17 1 -35 5 -38 9 -4 4 -15 3 -25 -2 -10 -5 -21 -6 -25 -2
-8 8 -475 10 -480 2z"/>
</g>
</svg>
