<svg xmlns="http://www.w3.org/2000/svg" viewBox="0 0 216 216"><defs><style>.cls-1{fill:#fff;}.cls-2{fill:#2c3b4c;stroke:#2c3b4c;stroke-miterlimit:10;stroke-width:1.5px;}.cls-3{fill:#aebcc0;}.cls-4{fill:#dde9e9;}.cls-5{fill:#f4e442;}.cls-6{fill:#626e76;}</style></defs><title>Cane_Logo</title><g id="Logos"><circle class="cls-1" cx="108" cy="81.22" r="51.27"/><path class="cls-2" d="M115.06,66.26A14.78,14.78,0,0,0,114,60.8a14.77,14.77,0,0,0-8-8.07,14.78,14.78,0,0,0-5.41-1.11h0a14.76,14.76,0,0,0-5.46,1,13.78,13.78,0,0,0-4.81,3.13,9.27,9.27,0,0,0-.84,1l-.22.31a12.78,12.78,0,0,0-2.49,10.39l3.88-3.88a10.35,10.35,0,0,1,.47-1.68,9,9,0,0,1,1.07-2l.05-.06a9,9,0,0,1,1-1.16,9.13,9.13,0,0,1,3.35-2.14,10.14,10.14,0,0,1,3.76-.61h.1a10.93,10.93,0,0,1,3.89.86,11,11,0,0,1,5.78,5.83,10.92,10.92,0,0,1,.83,3.9,10.17,10.17,0,0,1-.65,3.85,9.17,9.17,0,0,1-2.17,3.33,10,10,0,0,1-1.17,1l2.84,2.84A14.72,14.72,0,0,0,111,76.39a15.56,15.56,0,0,0,1.1-1.22l0,0a13.6,13.6,0,0,0,2-3.42A14.67,14.67,0,0,0,115.06,66.26Z"/><path class="cls-3" d="M82,101.54l.18.27a20.89,20.89,0,0,0,4,4.17,19.7,19.7,0,0,0,2.09,1.44,21.14,21.14,0,0,0,7.4,2.73h.06a21.11,21.11,0,0,0,7.93-.24,19.7,19.7,0,0,0,7.47-3.4,13.25,13.25,0,0,0,1.39-1.16l.38-.39c.38-.35.73-.73,1.08-1.11l-4-4.19c-.19.23-.39.46-.6.68l-.09.07a12.9,12.9,0,0,1-1.69,1.42,13.06,13.06,0,0,1-5.2,2.3,14.5,14.5,0,0,1-5.44.06l-.13,0a15.64,15.64,0,0,1-5.31-2.06c-.26-.16-.5-.32-.75-.49a15.31,15.31,0,0,1-3.63-3.59c-.2-.28-.39-.56-.57-.84s-.3-.51-.44-.77A15.64,15.64,0,0,1,84.41,91s0-.09,0-.14a14.5,14.5,0,0,1,.38-5.43,13.06,13.06,0,0,1,2.61-5.05,12.89,12.89,0,0,1,1.52-1.6l.08-.08c.16-.14.33-.26.5-.39l-4-4.19c-.3.25-.59.51-.88.78l-.41.35a13.25,13.25,0,0,0-1.25,1.32,19.7,19.7,0,0,0-3.84,7.25,21.11,21.11,0,0,0-.72,7.91v.06a21.14,21.14,0,0,0,2.29,7.56A19.7,19.7,0,0,0,82,101.54"/><polygon class="cls-4" points="137.72 79.93 129.79 79.93 121.24 89.37 125.43 93.59 137.72 79.93"/><polygon class="cls-5" points="121.05 96.03 116.92 91.73 93.87 67.7 89.33 71.75 91.37 73.9 95.39 78.09 112.83 96.25 115.89 99.44 116.97 100.56 119.91 103.63 126.77 110.81 135.15 110.81 135.2 110.77 121.05 96.03"/><path class="cls-1" d="M35.18,151.06a8.88,8.88,0,0,1,6.34,2.44.49.49,0,0,1,0,.73L40,155.89a.42.42,0,0,1-.66,0,6.2,6.2,0,0,0-4-1.55,6.09,6.09,0,0,0,0,12.16,6.29,6.29,0,0,0,4-1.49.48.48,0,0,1,.66,0l1.63,1.68a.5.5,0,0,1,0,.71,9,9,0,0,1-6.37,2.54,9.44,9.44,0,1,1,0-18.88Z"/><path class="cls-1" d="M50.48,169l8.15-17.64a.47.47,0,0,1,.45-.29h.26a.45.45,0,0,1,.45.29L67.86,169a.46.46,0,0,1-.45.68H65.13a.75.75,0,0,1-.76-.52l-1.28-2.83H55.25L54,169.15a.79.79,0,0,1-.76.52H50.92A.46.46,0,0,1,50.48,169Zm11.33-5.58-2.62-5.77H59.1l-2.57,5.77Z"/><path class="cls-1" d="M78.12,151.53a.49.49,0,0,1,.5-.47h.66l10.91,11.59h0V151.82a.5.5,0,0,1,.5-.5h2.41a.52.52,0,0,1,.5.5v17.64a.49.49,0,0,1-.5.47h-.63l-11-12h0v11.27a.5.5,0,0,1-.5.5H78.62a.52.52,0,0,1-.5-.5Z"/><path class="cls-1" d="M106.27,151.82a.5.5,0,0,1,.5-.5h10.67a.5.5,0,0,1,.5.5V154a.5.5,0,0,1-.5.5h-7.76v4.3h6.48a.52.52,0,0,1,.5.5v2.18a.5.5,0,0,1-.5.5h-6.48v4.59h7.76a.5.5,0,0,1,.5.5v2.15a.5.5,0,0,1-.5.5H106.77a.5.5,0,0,1-.5-.5Z"/><path class="cls-6" d="M130,170.11,125.51,168a.12.12,0,0,1-.07-.11v-.07a.11.11,0,0,1,.07-.11l4.51-2.06a.12.12,0,0,1,.17.11v.58a.19.19,0,0,1-.13.19l-.72.33v2l.72.33a.2.2,0,0,1,.13.19V170A.12.12,0,0,1,130,170.11Zm-1.43-2.9-1.48.67v0l1.48.66Z"/><path class="cls-6" d="M125.56,163a.13.13,0,0,1-.12-.13v-.17l3-2.79h-2.77a.13.13,0,0,1-.13-.13v-.62a.13.13,0,0,1,.13-.13h4.51a.13.13,0,0,1,.12.13v.16l-3.08,2.8h2.88a.13.13,0,0,1,.13.13v.61a.13.13,0,0,1-.13.13Z"/><path class="cls-6" d="M125.63,155.84a.13.13,0,0,1-.13-.12v-1.59a2.35,2.35,0,1,1,4.69,0v1.59a.13.13,0,0,1-.13.12Zm3.75-1.63a1.53,1.53,0,0,0-3.06,0V155h3.06Z"/><path class="cls-1" d="M148.9,151.31a8.65,8.65,0,0,1,6.18,2.38.47.47,0,0,1,0,.72L153.55,156a.41.41,0,0,1-.64,0A6,6,0,0,0,149,154.5a5.93,5.93,0,0,0,0,11.86,6.13,6.13,0,0,0,3.91-1.46.47.47,0,0,1,.64,0l1.58,1.64a.49.49,0,0,1,0,.69,8.77,8.77,0,0,1-6.21,2.48,9.2,9.2,0,1,1,0-18.4Z"/><path class="cls-1" d="M174,151.31a9.2,9.2,0,1,1-9.18,9.23A9.18,9.18,0,0,1,174,151.31Zm0,15.08a5.88,5.88,0,1,0-5.85-5.85A5.89,5.89,0,0,0,174,166.39Z"/><path class="cls-1" d="M188.36,166a1.91,1.91,0,1,1,0,3.82,1.91,1.91,0,0,1-1.9-1.9A1.93,1.93,0,0,1,188.36,166Z"/><path class="cls-1" d="M28.23,178h1.41l0,8H28.25Z"/><path class="cls-1" d="M42.14,177.94h1.31l4.32,5.55v-5.56h1.39l0,8H48l-4.45-5.72V186H42.15Z"/><path class="cls-1" d="M61,184.77l.85-1a3.71,3.71,0,0,0,2.54,1c.87,0,1.43-.41,1.42-1v0c0-.57-.33-.88-1.82-1.23-1.71-.41-2.68-.91-2.69-2.4v0a2.46,2.46,0,0,1,2.74-2.34,4.46,4.46,0,0,1,2.92,1l-.76,1.07a3.66,3.66,0,0,0-2.19-.82c-.83,0-1.31.43-1.31,1v0c0,.62.37.9,1.91,1.26,1.7.41,2.59,1,2.59,2.35v0c0,1.51-1.18,2.41-2.87,2.41A5,5,0,0,1,61,184.77Z"/><path class="cls-1" d="M79.13,182.49v-4.63h1.41v4.58c0,1.5.77,2.3,2,2.29s2-.76,2-2.25v-4.63H86v4.56c0,2.4-1.35,3.61-3.45,3.62S79.14,184.82,79.13,182.49Z"/><path class="cls-1" d="M98.29,177.81h3.59a3.25,3.25,0,0,1,2.32.8,2.43,2.43,0,0,1,.67,1.73v0A2.42,2.42,0,0,1,103,182.8l2.18,3h-1.67l-2-2.8H99.71v2.81H98.31Zm3.49,4c1,0,1.65-.53,1.65-1.35v0c0-.86-.63-1.33-1.67-1.33H99.7v2.7Z"/><path class="cls-1" d="M119.79,177.7h1.31l3.56,8.1h-1.49l-.82-1.94h-3.81l-.82,1.95h-1.45Zm2,4.9-1.4-3.22-1.37,3.22Z"/><path class="cls-1" d="M136.36,177.71h1.31l4.32,5.55V177.7h1.39l0,8H142.2L137.75,180v5.73h-1.39Z"/><path class="cls-1" d="M155.43,181.71v0a4.07,4.07,0,0,1,4.14-4.17,4.2,4.2,0,0,1,3.15,1.25l-.91,1a3.19,3.19,0,0,0-2.25-1,2.7,2.7,0,0,0-2.65,2.85v0a2.72,2.72,0,0,0,2.66,2.86,3.16,3.16,0,0,0,2.31-1.05l.91.92a4.16,4.16,0,0,1-3.26,1.43A4,4,0,0,1,155.43,181.71Z"/><path class="cls-1" d="M174.6,177.62h6v1.26H176V181h4v1.26h-4v2.16h4.61v1.26h-6Z"/></g></svg>